# xmcd CD database file
#
# Track frame offsets:
#	150
#	22617
#	41317
#	63840
#
# Disc length: 1096 seconds
#
# Revision: 0
# Processed by: cddbd v1.5.1PL0 Copyright (c) Steve Scherf et al.
# Submitted via: CDex 1.51
#
DISCID=1e044604
DTITLE=宇徳　敬子 - 風のように自由 -Free As The Wind-
DYEAR=1998
DGENRE=Pop
TTITLE0=風のように自由 -Free As The Wind-
TTITLE1=Higher〜青い空ねぇ〜
TTITLE2=風のように自由 -Free As The Wind-（オリジナル・カラオケ）
TTITLE3=Higher〜青い空ねぇ〜（オリジナル・カラオケ）
EXTD=YEAR: 1998
EXTT0=
EXTT1=
EXTT2=
EXTT3=
PLAYORDER=
